<?xml version="1.0" encoding="iso-8859-1"?>
<!-- Generator: Adobe Illustrator 16.0.0, SVG Export Plug-In . SVG Version: 6.00 Build 0)  -->
<!DOCTYPE svg PUBLIC "-//W3C//DTD SVG 1.1//EN" "http://www.w3.org/Graphics/SVG/1.1/DTD/svg11.dtd">
<svg version="1.1" id="Capa_1" xmlns="http://www.w3.org/2000/svg" xmlns:xlink="http://www.w3.org/1999/xlink" x="0px" y="0px"
	 width="27.948px" height="27.948px" viewBox="0 0 27.948 27.948" style="enable-background:new 0 0 27.948 27.948;"
	 xml:space="preserve">
<g>
	<path d="M9.689,19.484h15.503v1.936H8.133L4.99,7.153h-4.3V5.218h5.854L9.689,19.484z M11.45,22.708
		c-1.447,0-2.62,1.172-2.62,2.619c0,1.446,1.173,2.621,2.62,2.621c1.447,0,2.62-1.175,2.62-2.621
		C14.07,23.88,12.897,22.708,11.45,22.708z M22.25,22.708c-1.445,0-2.619,1.172-2.619,2.619c0,1.446,1.174,2.621,2.619,2.621
		c1.447,0,2.621-1.175,2.621-2.621C24.872,23.88,23.698,22.708,22.25,22.708z M10.668,18.035L8.37,6.133h3.76L20.463,0l3.729,5.064
		l-0.161,1.069h3.227l-2.687,11.902H10.668z M23.584,5.477l-0.892,0.656h0.794L23.584,5.477z M13.038,6.132h1.958l-0.117-0.16
		l0.379-0.279l0.324,0.439h0.48L15.57,5.463l0.38-0.279l0.697,0.948h0.544l-0.89-1.207l0.381-0.279l1.095,1.486h0.626l-1.301-1.768
		l0.379-0.28l1.507,2.048h0.544l-1.697-2.308l0.379-0.278l1.902,2.586h1.668l1.639-1.205l-3.07-4.176L13.038,6.132z M21.75,5.305
		l-2.088-2.839l-0.382,0.279l2.089,2.839L21.75,5.305z M21.02,5.845l-2.09-2.84l-0.379,0.279l2.092,2.839L21.02,5.845z"/>
</g>
<g>
</g>
<g>
</g>
<g>
</g>
<g>
</g>
<g>
</g>
<g>
</g>
<g>
</g>
<g>
</g>
<g>
</g>
<g>
</g>
<g>
</g>
<g>
</g>
<g>
</g>
<g>
</g>
<g>
</g>
</svg>
