<?xml version="1.0" encoding="utf-8"?><svg version="1.1" id="Layer_1" xmlns="http://www.w3.org/2000/svg" xmlns:xlink="http://www.w3.org/1999/xlink" x="0px" y="0px" viewBox="0 0 122.88 118.73" style="enable-background:new 0 0 122.88 118.73" xml:space="preserve"><style type="text/css">.st0{fill:#393939;} .st1{fill:#D8453E;}</style><g><path class="st0" d="M82.68,4.21c0-2.34,2.3-4.21,5.16-4.21C90.7,0,93,1.91,93,4.21v18.5c0,2.34-2.3,4.21-5.16,4.21 c-2.86,0-5.16-1.9-5.16-4.21V4.21L82.68,4.21L82.68,4.21z M29.67,4.21c0-2.34,2.3-4.21,5.16-4.21c2.86,0,5.16,1.91,5.16,4.21v18.5 c0,2.34-2.3,4.21-5.16,4.21c-2.86,0-5.16-1.9-5.16-4.21V4.21L29.67,4.21L29.67,4.21z M6.76,109.26c0,0.71,0.28,1.39,0.76,1.87 c0.48,0.48,1.11,0.75,1.87,0.75h104.03c0.71,0,1.39-0.28,1.86-0.75c0.48-0.48,0.75-1.11,0.75-1.87c0-28.88,0-60.12,0-89 c0-0.72-0.28-1.39-0.75-1.83c-0.48-0.48-1.11-0.75-1.82-0.75h-8.33c-1.59,0-2.86-2.35-2.86-3.94c0-1.59,1.27-2.86,2.86-2.86h9.41 c2.3,0,4.37,0.95,5.88,2.46c1.51,1.51,2.46,3.61,2.46,5.88v91.17c0,2.3-0.95,4.37-2.46,5.88c-1.51,1.51-3.61,2.46-5.88,2.46H8.34 c-2.3,0-4.37-0.95-5.88-2.46C0.95,114.76,0,112.66,0,110.39V19.22c0-2.3,0.95-4.37,2.46-5.88c1.51-1.51,3.61-2.46,5.88-2.46h10.09 c1.59,0,2.86,1.27,2.86,2.86c0,1.59-1.27,3.94-2.86,3.94h-9c-0.71,0-1.39,0.28-1.87,0.75C7.08,18.91,6.8,19.55,6.8,20.3 C6.8,49.11,6.76,80.33,6.76,109.26L6.76,109.26z M51.55,17.64c-1.59,0-2.86-2.35-2.86-3.94c0-1.59,1.27-2.86,2.86-2.86h19.22 c1.59,0,2.86,1.27,2.86,2.86c0,1.59-1.27,3.94-2.86,3.94L51.55,17.64L51.55,17.64L51.55,17.64z"/><path class="st0" d="M53.95,28.68v38.2H43.28V41.89c-1.73,1.29-3.4,2.33-5.02,3.13c-1.62,0.8-3.65,1.57-6.08,2.29v-8.5 c3.59-1.15,6.39-2.54,8.37-4.14c1.99-1.62,3.55-3.61,4.67-5.98H53.95L53.95,28.68z M62.77,47.94c0-7.14,1.3-12.13,3.9-14.98 c2.6-2.85,6.57-4.28,11.88-4.28c2.56,0,4.66,0.31,6.3,0.94c1.65,0.62,2.98,1.43,4.02,2.43c1.04,1,1.86,2.05,2.45,3.15 c0.6,1.1,1.08,2.39,1.44,3.86c0.71,2.8,1.06,5.72,1.06,8.76c0,6.81-1.17,11.8-3.5,14.95c-2.33,3.16-6.35,4.74-12.05,4.74 c-3.19,0-5.78-0.51-7.75-1.51c-1.97-1.01-3.58-2.48-4.85-4.43c-0.91-1.38-1.63-3.27-2.14-5.67C63.02,53.49,62.77,50.84,62.77,47.94 L62.77,47.94z M73.23,47.96c0,4.77,0.42,8.05,1.28,9.79c0.86,1.75,2.1,2.62,3.73,2.62c1.07,0,2-0.37,2.79-1.11 c0.79-0.74,1.36-1.92,1.73-3.52c0.37-1.61,0.56-4.11,0.56-7.5c0-4.98-0.42-8.33-1.28-10.06c-0.86-1.71-2.14-2.57-3.85-2.57 c-1.75,0-3.01,0.87-3.79,2.62C73.62,39.98,73.23,43.23,73.23,47.96L73.23,47.96z"/><path class="st1" d="M33.61,75.27l-5.33,17.95v10.18h-6.76V93.21l-5.16-17.95h6.71c1.04,5.51,1.64,9.2,1.78,11.1 c0.42-3,1.1-6.7,2.04-11.1H33.61L33.61,75.27z M35.84,75.27h12.2v5.62h-4.87v5.37h4.55v5.33h-4.55v6.19h5.37v5.62H35.84V75.27 L35.84,75.27z M64.55,75.27l4.18,28.13h-6.8l-0.4-5.05h-3.98l-0.4,5.05h-6.9l3.71-28.13H64.55L64.55,75.27z M61.34,93.37 c-0.35-3.19-1.39-7.14-1.78-11.85c-0.72,5.41-1.85,9.35-2.05,11.85H61.34L61.34,93.37z M70.31,75.27h5.17 c3.45,0,5.78,0.13,7.01,0.4c1.22,0.27,2.22,0.95,2.99,2.04c0.77,1.09,1.16,2.84,1.16,5.23c0,2.19-0.28,3.66-0.82,4.41 c-0.54,0.75-1.61,1.2-3.21,1.35c1.45,0.36,2.42,0.84,2.92,1.45c0.49,0.6,0.8,1.16,0.92,1.66c0.12,0.5,0.18,1.89,0.18,4.16v7.43 h-6.46v-9.36c0-1.51-0.12-2.44-0.36-2.8c-0.23-0.36-2.02-0.54-3.02-0.54v12.69h-6.49V75.27L70.31,75.27z M76.79,80.07v6.26 c0.82,0,2.56-0.11,2.89-0.34c0.33-0.23,0.49-0.96,0.49-2.2v-1.55c0-0.89-0.16-1.48-0.47-1.76C79.38,80.21,77.63,80.07,76.79,80.07 L76.79,80.07z"/><path class="st1" d="M105.92,83.78h-6.79V81.7c0-0.97-0.09-1.59-0.26-1.86c-0.17-0.27-0.46-0.4-0.86-0.4c-0.44,0-0.77,0.18-1,0.54 c-0.23,0.36-0.34,0.9-0.34,1.62c0,0.94,0.13,1.64,0.39,2.12c0.25,0.47,0.94,1.04,2.07,1.72c3.24,1.94,5.29,3.53,6.13,4.77 c0.85,1.24,1.27,3.24,1.27,5.99c0,2-0.24,3.48-0.71,4.43c-0.47,0.95-1.37,1.74-2.71,2.38c-1.34,0.65-2.9,0.97-4.68,0.97 c-1.96,0-3.62-0.37-5.01-1.11c-1.38-0.74-2.28-1.68-2.71-2.83c-0.43-1.15-0.64-2.78-0.64-4.88v-1.84h6.79v3.42 c0,1.05,0.09,1.73,0.28,2.03c0.19,0.3,0.53,0.45,1.01,0.45c0.49,0,0.85-0.19,1.08-0.58c0.24-0.38,0.36-0.95,0.36-1.69 c0-1.65-0.23-2.74-0.68-3.24c-0.47-0.51-1.61-1.36-3.42-2.56c-1.81-1.2-3.01-2.08-3.6-2.63c-0.59-0.55-1.08-1.3-1.46-2.26 c-0.39-0.96-0.58-2.19-0.58-3.68c0-2.15,0.27-3.73,0.82-4.72c0.55-1,1.43-1.77,2.66-2.34c1.23-0.56,2.7-0.84,4.44-0.84 c1.9,0,3.51,0.31,4.85,0.92c1.33,0.62,2.22,1.39,2.65,2.32c0.43,0.93,0.65,2.51,0.65,4.75V83.78L105.92,83.78z"/></g></svg>